<svg xmlns="http://www.w3.org/2000/svg" version="1.1" xmlns:xlink="http://www.w3.org/1999/xlink" xmlns:svgjs="http://svgjs.com/svgjs" width="1600" height="540" preserveAspectRatio="none" viewBox="0 0 1600 540"><g mask="url(&quot;#SvgjsMask1281&quot;)" fill="none"><path d="M -255.71208715403503,277 C -148.91,264.4 64.69,210.2 278.28791284596497,214 C 491.89,217.8 598.69,289.2 812.2879128459649,296 C 1025.89,302.8 1132.69,237.2 1346.287912845965,248 C 1559.89,258.8 1829.55,364.8 1880.287912845965,350 C 1931.03,335.2 1656.06,209.2 1600,174" stroke="rgba(148, 205, 236, 1)" stroke-width="2"></path><path d="M -177.06837652328102,311 C -70.27,281.4 143.33,153.6 356.931623476719,163 C 570.53,172.4 677.33,360.4 890.931623476719,358 C 1104.53,355.6 1211.33,154.2 1424.9316234767189,151 C 1638.53,147.8 1923.92,321.4 1958.9316234767189,342 C 1993.95,362.6 1671.79,271.6 1600,254" stroke="rgba(148, 205, 236, 1)" stroke-width="2"></path><path d="M -997.2904690260127,305 C -890.49,279 -676.89,158.6 -463.2904690260128,175 C -249.69,191.4 -142.89,372.6 70.70953097398723,387 C 284.31,401.4 391.11,254.6 604.7095309739873,247 C 818.31,239.4 939.65,350.2 1138.7095309739873,349 C 1337.77,347.8 1507.74,262.6 1600,241" stroke="rgba(148, 205, 236, 1)" stroke-width="2"></path><path d="M -231.10956784608805,178 C -124.31,206.4 89.29,308.6 302.89043215391195,320 C 516.49,331.4 623.29,233.6 836.8904321539119,235 C 1050.49,236.4 1157.29,339.2 1370.890432153912,327 C 1584.49,314.8 1859.07,165.2 1904.890432153912,174 C 1950.71,182.8 1660.98,331.6 1600,371" stroke="rgba(148, 205, 236, 1)" stroke-width="2"></path></g><defs><mask id="SvgjsMask1281"><rect width="1600" height="540" fill="#ffffff"></rect></mask></defs></svg>