<svg id="visual" viewBox="0 0 960 540" width="960" height="540" xmlns="http://www.w3.org/2000/svg" xmlns:xlink="http://www.w3.org/1999/xlink" version="1.1"><rect x="0" y="0" width="960" height="540" fill="#fffafa"></rect><path d="M0 333L16 338.3C32 343.7 64 354.3 96 363.5C128 372.7 160 380.3 192 380.5C224 380.7 256 373.3 288 364.3C320 355.3 352 344.7 384 346.7C416 348.7 448 363.3 480 365.5C512 367.7 544 357.3 576 358.3C608 359.3 640 371.7 672 368.5C704 365.3 736 346.7 768 341.5C800 336.3 832 344.7 864 351.3C896 358 928 363 944 365.5L960 368L960 541L944 541C928 541 896 541 864 541C832 541 800 541 768 541C736 541 704 541 672 541C640 541 608 541 576 541C544 541 512 541 480 541C448 541 416 541 384 541C352 541 320 541 288 541C256 541 224 541 192 541C160 541 128 541 96 541C64 541 32 541 16 541L0 541Z" fill="#94cdec"></path><path d="M0 361L16 359.8C32 358.7 64 356.3 96 364.5C128 372.7 160 391.3 192 400C224 408.7 256 407.3 288 404.5C320 401.7 352 397.3 384 396C416 394.7 448 396.3 480 390.5C512 384.7 544 371.3 576 372.7C608 374 640 390 672 393.3C704 396.7 736 387.3 768 386.3C800 385.3 832 392.7 864 394.8C896 397 928 394 944 392.5L960 391L960 541L944 541C928 541 896 541 864 541C832 541 800 541 768 541C736 541 704 541 672 541C640 541 608 541 576 541C544 541 512 541 480 541C448 541 416 541 384 541C352 541 320 541 288 541C256 541 224 541 192 541C160 541 128 541 96 541C64 541 32 541 16 541L0 541Z" fill="#a0d3f0"></path><path d="M0 439L16 438.5C32 438 64 437 96 433.2C128 429.3 160 422.7 192 415.3C224 408 256 400 288 403.3C320 406.7 352 421.3 384 427.8C416 434.3 448 432.7 480 426.3C512 420 544 409 576 402.3C608 395.7 640 393.3 672 397.3C704 401.3 736 411.7 768 413.2C800 414.7 832 407.3 864 405.7C896 404 928 408 944 410L960 412L960 541L944 541C928 541 896 541 864 541C832 541 800 541 768 541C736 541 704 541 672 541C640 541 608 541 576 541C544 541 512 541 480 541C448 541 416 541 384 541C352 541 320 541 288 541C256 541 224 541 192 541C160 541 128 541 96 541C64 541 32 541 16 541L0 541Z" fill="#abdaf3"></path><path d="M0 426L16 426.3C32 426.7 64 427.3 96 431.8C128 436.3 160 444.7 192 448.5C224 452.3 256 451.7 288 453.3C320 455 352 459 384 458.5C416 458 448 453 480 449.3C512 445.7 544 443.3 576 438.8C608 434.3 640 427.7 672 430C704 432.3 736 443.7 768 449.7C800 455.7 832 456.3 864 450.8C896 445.3 928 433.7 944 427.8L960 422L960 541L944 541C928 541 896 541 864 541C832 541 800 541 768 541C736 541 704 541 672 541C640 541 608 541 576 541C544 541 512 541 480 541C448 541 416 541 384 541C352 541 320 541 288 541C256 541 224 541 192 541C160 541 128 541 96 541C64 541 32 541 16 541L0 541Z" fill="#b7e0f7"></path><path d="M0 482L16 482.5C32 483 64 484 96 483.3C128 482.7 160 480.3 192 475.7C224 471 256 464 288 464.3C320 464.7 352 472.3 384 475C416 477.7 448 475.3 480 475.5C512 475.7 544 478.3 576 480.3C608 482.3 640 483.7 672 481.3C704 479 736 473 768 471.5C800 470 832 473 864 470.8C896 468.7 928 461.3 944 457.7L960 454L960 541L944 541C928 541 896 541 864 541C832 541 800 541 768 541C736 541 704 541 672 541C640 541 608 541 576 541C544 541 512 541 480 541C448 541 416 541 384 541C352 541 320 541 288 541C256 541 224 541 192 541C160 541 128 541 96 541C64 541 32 541 16 541L0 541Z" fill="#c2e7fb"></path><path d="M0 502L16 499.5C32 497 64 492 96 494C128 496 160 505 192 506.3C224 507.7 256 501.3 288 498C320 494.7 352 494.3 384 496.8C416 499.3 448 504.7 480 507.2C512 509.7 544 509.3 576 506.5C608 503.7 640 498.3 672 496.2C704 494 736 495 768 494.5C800 494 832 492 864 493C896 494 928 498 944 500L960 502L960 541L944 541C928 541 896 541 864 541C832 541 800 541 768 541C736 541 704 541 672 541C640 541 608 541 576 541C544 541 512 541 480 541C448 541 416 541 384 541C352 541 320 541 288 541C256 541 224 541 192 541C160 541 128 541 96 541C64 541 32 541 16 541L0 541Z" fill="#cdedff"></path></svg>